PathFileType	4	(X/Y/Z)	C:\Users\°ÂÌØÂü\Desktop\20210112\bx_y_5_902-Unnamed.trc
DataRate	CameraRate	NumFrames	NumMarkers	Units	OrigDataRate	OrigDataStartFrame	OrigNumFrames
50.00	50.00	       4	0	mm	50.00	460	       525
Frame#	Time	
		

460	9.180	-662.89569	92.65534	1849.39099	-698.82452	268.53149	750.50439	-632.20758	282.19037	1547.49768	-593.87317	204.54446	1067.23450	-647.25116	269.79269	877.15100	-685.69360	8.63776	524.24762	-730.67749	247.79797	639.77332	-736.27631	243.42366	576.77380	-684.89343	200.39272	534.45178	-777.93225	255.43022	504.12946	-517.81720	-72.87132	142.73323	-613.48010	-20.49975	805.05200	-604.22168	17.06336	169.75710	-675.84442	174.48026	158.56105	-771.37744	224.96425	204.63661	-594.48499	222.66698	173.38101	-882.63568	296.12158	144.50882	-561.18542	260.34183	165.55634	-665.58789	299.03720	160.49232	-628.06714	306.90054	161.84145	-528.04907	304.31696	146.34468	-615.84906	-23.70057	1052.98816	-707.33752	71.44862	577.57391	-771.57947	-8.33379	205.88083	-795.23328	53.76738	174.02417	-796.63013	175.39275	182.99898	-785.80334	-37.56094	489.10181	-666.55377	-70.44447	159.69585	-876.03333	-78.73601	141.31268	-703.16046	139.29263	573.85565	-709.72266	-58.53285	710.67120	-597.99518	201.49013	822.40857	-739.29742	-31.09645	569.63483	-562.58594	-40.07798	162.96935	-712.65802	153.99146	217.68510	-624.87103	-80.69243	157.66112	-645.91705	-73.00423	1555.98328	-675.85223	52.10691	163.06215	-725.56769	-35.39426	619.43646	-718.01318	72.47147	219.26071				-810.54486	96.88818	1046.00281	
461	9.200	-665.99780	92.63262	1850.04407	-696.51447	267.25760	750.58411	-635.65314	282.11469	1547.99963	-590.75006	204.54726	1067.16602	-644.45477	269.50314	877.20422	-685.28851	8.80782	523.92596	-728.53546	247.10304	639.70563	-735.15887	242.99796	576.85571	-683.87054	199.80492	533.92053	-777.03711	255.06578	504.56476	-517.88495	-72.95118	142.75890	-610.92401	-20.12323	805.14270	-604.26233	17.04826	169.53867	-675.84442	174.48026	158.56105	-771.38708	224.77345	204.59149	-594.48499	222.66698	173.38101	-882.55640	296.06802	144.49452	-561.13116	260.31488	165.32889	-665.45856	298.97000	160.27266	-628.04822	306.91214	161.70638	-527.85223	304.36099	146.55138	-613.34979	-23.92131	1052.28638	-706.06641	71.54382	577.24481	-771.50049	-8.22631	205.86353	-795.24908	53.93282	174.06313	-796.93317	174.84291	183.03639	-784.44849	-37.11753	488.81464	-666.60065	-70.53859	159.74216	-875.73853	-78.83031	141.37350	-701.72070	138.85857	573.70496	-707.78540	-58.63716	710.43701	-595.13141	201.32079	822.44543	-738.41821	-31.68197	569.75836	-562.50378	-40.14990	162.89233	-712.63440	153.78342	217.31299	-624.95868	-80.78887	157.77623	-648.88562	-72.68701	1556.86780	-675.54333	52.31663	162.83817	-724.10065	-35.70864	619.94812	-718.03265	72.54112	219.19737	-576.27509	93.62299	1428.46899	-807.88824	96.59135	1045.60303	
462	9.220	-668.65741	93.04871	1850.47205	-694.50665	267.49026	749.77209	-638.22131	282.45218	1548.47266	-588.27417	204.99812	1067.07764	-641.99420	269.79309	876.78308	-684.55176	8.68299	523.85144	-727.08716	247.05038	639.63660	-733.27124	242.93562	576.92786	-682.65930	199.67744	533.75922	-776.18481	254.54732	504.90012	-517.88495	-72.95118	142.75890	-608.68823	-19.90143	804.46558	-604.29346	17.24484	169.31682	-676.09412	174.46713	157.81323	-771.43060	224.64046	204.59776	-594.42139	222.69725	173.31291	-882.67206	295.98730	144.45169	-561.07666	260.27200	165.24174	-665.48151	298.96982	160.57411	-627.99512	306.90829	161.78192	-528.05737	304.22806	146.37032	-610.60571	-23.87894	1052.46948	-705.72473	71.56181	577.31085	-771.51050	-8.22489	205.92055	-795.30939	53.83976	174.09038	-796.97845	174.43982	182.97569	-784.33765	-37.84504	489.81717	-666.60065	-70.53859	159.74216	-875.96283	-79.04760	141.00154	-699.81311	138.62778	574.16150	-706.04401	-58.26455	710.39691	-592.85455	201.05972	822.15155	-737.44763	-31.37642	569.46930	-562.38342	-40.21544	163.03113	-712.60016	153.46851	217.02734	-624.94257	-80.73656	157.29518	-651.51190	-72.63797	1557.27197	-675.51031	52.52745	162.72453	-722.87732	-35.51435	619.57043	-718.07904	72.63853	219.06424	-575.76447	94.18617	1427.46655	-804.94763	96.55128	1045.52344	
463	9.240	-671.11993	93.00391	1851.00403	-691.88684	266.66467	749.41876	-641.68274	282.38235	1548.57813	-585.53015	204.67647	1066.42944	-639.55597	268.76294	875.60168	-683.28632	8.80447	523.67291	-726.13556	246.96947	639.69537	-732.55225	242.50008	576.54181	-681.66302	200.12199	533.54779	-774.76526	254.10257	504.42792	-517.92291	-72.86039	142.65823	-606.58899	-18.93551	804.44995	-604.27557	17.11477	169.21841	-675.78198	174.29916	158.07976	-771.18616	224.50586	204.50151	-594.34784	222.58765	173.32185	-882.75586	296.10339	144.51614	-561.06781	260.33768	165.39325	-665.35852	298.87714	160.55530	-627.94708	306.74783	162.00200	-528.05737	304.22806	146.37032	-608.32092	-24.05928	1052.06396	-705.21155	71.84782	577.53784	-771.45471	-8.28802	205.89397	-795.07581	54.01057	174.12343	-796.91003	174.50363	182.93588	-783.60657	-38.19365	489.90988	-666.61407	-70.56927	159.56958	-875.99298	-78.87768	141.19183	-698.39850	138.03503	573.83569	-703.59302	-58.69008	709.46356	-590.80615	200.98672	820.88879	-736.18518	-31.17412	569.41034	-562.28876	-40.21178	162.97479	-712.39319	153.34811	217.09027	-624.94128	-80.75770	157.41098	-654.63892	-72.89068	1557.87793	-675.48895	52.40509	162.58266	-720.71954	-35.98010	619.65088	-717.97955	72.61102	219.07188	-576.96545	93.80489	1429.38159	-802.29156	96.20893	1045.02649	
